<mxfile host="app.diagrams.net" agent="Mozilla/5.0 (Windows NT 10.0; Win64; x64) AppleWebKit/537.36 (KHTML, like Gecko) Chrome/140.0.0.0 Safari/537.36" version="28.2.5">
  <diagram name="Page-1" id="o6yJUd2rQhLODu_G7iH8">
    <mxGraphModel dx="870" dy="1608" grid="1" gridSize="10" guides="1" tooltips="1" connect="1" arrows="1" fold="1" page="1" pageScale="1" pageWidth="850" pageHeight="1100" math="0" shadow="0">
      <root>
        <mxCell id="0" />
        <mxCell id="1" parent="0" />
        <mxCell id="-4VWNVWn2c0_IAg-sDkh-6" value="&lt;font face=&quot;Lucida Console&quot;&gt;main&lt;/font&gt;" style="rounded=1;whiteSpace=wrap;html=1;fillColor=#e1d5e7;strokeColor=#9673a6;" parent="1" vertex="1">
          <mxGeometry x="35" y="140" width="50" height="30" as="geometry" />
        </mxCell>
        <mxCell id="-4VWNVWn2c0_IAg-sDkh-7" value="&lt;font face=&quot;Lucida Console&quot;&gt;oldmcdonaldspumpkinpatchwv.com&lt;/font&gt;" style="rounded=1;whiteSpace=wrap;html=1;fillColor=#dae8fc;strokeColor=#6c8ebf;" parent="1" vertex="1">
          <mxGeometry x="65" y="70" width="240" height="30" as="geometry" />
        </mxCell>
        <mxCell id="-4VWNVWn2c0_IAg-sDkh-9" value="" style="swimlane;startSize=0;fillColor=#e1d5e7;strokeColor=#9673a6;" parent="1" vertex="1">
          <mxGeometry x="20" y="220" width="460" height="120" as="geometry" />
        </mxCell>
        <mxCell id="-4VWNVWn2c0_IAg-sDkh-10" value="&lt;font face=&quot;Lucida Console&quot;&gt;features/&lt;/font&gt;" style="rounded=0;whiteSpace=wrap;html=1;fillColor=#e1d5e7;strokeColor=#9673a6;" parent="-4VWNVWn2c0_IAg-sDkh-9" vertex="1">
          <mxGeometry width="80" height="30" as="geometry" />
        </mxCell>
        <mxCell id="-4VWNVWn2c0_IAg-sDkh-11" value="&lt;font face=&quot;Lucida Console&quot;&gt;layout&lt;/font&gt;" style="rounded=1;whiteSpace=wrap;html=1;fillColor=#e1d5e7;strokeColor=#9673a6;" parent="-4VWNVWn2c0_IAg-sDkh-9" vertex="1">
          <mxGeometry x="90" y="10" width="60" height="30" as="geometry" />
        </mxCell>
        <mxCell id="-4VWNVWn2c0_IAg-sDkh-12" value="&lt;font face=&quot;Lucida Console&quot;&gt;search&lt;/font&gt;" style="rounded=1;whiteSpace=wrap;html=1;fillColor=#e1d5e7;strokeColor=#9673a6;" parent="-4VWNVWn2c0_IAg-sDkh-9" vertex="1">
          <mxGeometry x="160" y="10" width="60" height="30" as="geometry" />
        </mxCell>
        <mxCell id="-4VWNVWn2c0_IAg-sDkh-13" value="&lt;font face=&quot;Lucida Console&quot;&gt;flags&lt;/font&gt;" style="rounded=1;whiteSpace=wrap;html=1;fillColor=#e1d5e7;strokeColor=#9673a6;" parent="-4VWNVWn2c0_IAg-sDkh-9" vertex="1">
          <mxGeometry x="230" y="10" width="60" height="30" as="geometry" />
        </mxCell>
        <mxCell id="-4VWNVWn2c0_IAg-sDkh-14" value="&lt;font face=&quot;Lucida Console&quot;&gt;content&lt;/font&gt;" style="rounded=1;whiteSpace=wrap;html=1;fillColor=#e1d5e7;strokeColor=#9673a6;" parent="-4VWNVWn2c0_IAg-sDkh-9" vertex="1">
          <mxGeometry x="300" y="10" width="60" height="30" as="geometry" />
        </mxCell>
        <mxCell id="-4VWNVWn2c0_IAg-sDkh-16" value="&lt;font face=&quot;Lucida Console&quot;&gt;maze-game&lt;/font&gt;" style="rounded=1;whiteSpace=wrap;html=1;fillColor=#e1d5e7;strokeColor=#9673a6;" parent="-4VWNVWn2c0_IAg-sDkh-9" vertex="1">
          <mxGeometry x="370" y="10" width="80" height="30" as="geometry" />
        </mxCell>
        <mxCell id="-4VWNVWn2c0_IAg-sDkh-17" value="&lt;font face=&quot;Lucida Console&quot;&gt;contact-form&lt;/font&gt;" style="rounded=1;whiteSpace=wrap;html=1;fillColor=#e1d5e7;strokeColor=#9673a6;" parent="-4VWNVWn2c0_IAg-sDkh-9" vertex="1">
          <mxGeometry x="10" y="80" width="100" height="30" as="geometry" />
        </mxCell>
        <mxCell id="-4VWNVWn2c0_IAg-sDkh-18" value="&lt;font face=&quot;Lucida Console&quot;&gt;calendar&lt;/font&gt;" style="rounded=1;whiteSpace=wrap;html=1;fillColor=#e1d5e7;strokeColor=#9673a6;" parent="-4VWNVWn2c0_IAg-sDkh-9" vertex="1">
          <mxGeometry x="120" y="80" width="70" height="30" as="geometry" />
        </mxCell>
        <mxCell id="-4VWNVWn2c0_IAg-sDkh-19" value="&lt;font face=&quot;Lucida Console&quot;&gt;faq&lt;/font&gt;" style="rounded=1;whiteSpace=wrap;html=1;fillColor=#e1d5e7;strokeColor=#9673a6;" parent="-4VWNVWn2c0_IAg-sDkh-9" vertex="1">
          <mxGeometry x="200" y="80" width="40" height="30" as="geometry" />
        </mxCell>
        <mxCell id="-4VWNVWn2c0_IAg-sDkh-20" value="&lt;font face=&quot;Lucida Console&quot;&gt;error-pages&lt;/font&gt;" style="rounded=1;whiteSpace=wrap;html=1;fillColor=#e1d5e7;strokeColor=#9673a6;" parent="-4VWNVWn2c0_IAg-sDkh-9" vertex="1">
          <mxGeometry x="250" y="80" width="90" height="30" as="geometry" />
        </mxCell>
        <mxCell id="-4VWNVWn2c0_IAg-sDkh-21" value="&lt;font face=&quot;Lucida Console&quot;&gt;etc...&lt;/font&gt;" style="rounded=1;whiteSpace=wrap;html=1;fillColor=#e1d5e7;strokeColor=#9673a6;" parent="-4VWNVWn2c0_IAg-sDkh-9" vertex="1">
          <mxGeometry x="350" y="80" width="60" height="30" as="geometry" />
        </mxCell>
        <mxCell id="-4VWNVWn2c0_IAg-sDkh-32" style="edgeStyle=orthogonalEdgeStyle;rounded=0;orthogonalLoop=1;jettySize=auto;html=1;entryX=0.5;entryY=1;entryDx=0;entryDy=0;fillColor=#e1d5e7;strokeColor=#9673a6;" parent="1" source="-4VWNVWn2c0_IAg-sDkh-10" target="-4VWNVWn2c0_IAg-sDkh-6" edge="1">
          <mxGeometry relative="1" as="geometry" />
        </mxCell>
        <mxCell id="gmR4Mrr9ib6HvDQ7C4Ge-2" value="&lt;font face=&quot;Lucida Console&quot;&gt;&amp;nbsp; &lt;u&gt;preview&lt;/u&gt;.oldmcdonaldspumpkinpatchwv.com&lt;/font&gt;" style="rounded=1;whiteSpace=wrap;html=1;fillColor=#dae8fc;strokeColor=#6c8ebf;" vertex="1" parent="1">
          <mxGeometry x="65" y="30" width="310" height="30" as="geometry" />
        </mxCell>
        <mxCell id="gmR4Mrr9ib6HvDQ7C4Ge-3" value="&lt;font face=&quot;Lucida Console&quot;&gt;&amp;nbsp; &lt;u&gt;admin&lt;/u&gt;.oldmcdonaldspumpkinpatchwv.com&lt;/font&gt;" style="rounded=1;whiteSpace=wrap;html=1;fillColor=#dae8fc;strokeColor=#6c8ebf;" vertex="1" parent="1">
          <mxGeometry x="65" y="-10" width="310" height="30" as="geometry" />
        </mxCell>
        <mxCell id="gmR4Mrr9ib6HvDQ7C4Ge-4" value="&lt;font face=&quot;Lucida Console&quot;&gt;&amp;nbsp; &lt;u&gt;hayrides&lt;/u&gt;.oldmcdonaldspumpkinpatchwv.com&lt;/font&gt;" style="rounded=1;whiteSpace=wrap;html=1;fillColor=#dae8fc;strokeColor=#6c8ebf;" vertex="1" parent="1">
          <mxGeometry x="65" y="-50" width="310" height="30" as="geometry" />
        </mxCell>
      </root>
    </mxGraphModel>
  </diagram>
</mxfile>
